<?xml version="1.0" encoding="UTF-8" standalone="no"?> <svg width="64" height="64" viewBox="0 0 64 64" fill="none" xmlns="http://www.w3.org/2000/svg">
<path d="M32 2.75C26.2149 2.75 20.5597 4.46548 15.7496 7.67951C10.9394 10.8935 7.1904 15.4618 4.97654 20.8065C2.76267 26.1512 2.18343 32.0324 3.31204 37.7064C4.44066 43.3803 7.22645 48.5922 11.3171 52.6829C15.4078 56.7736 20.6197 59.5594 26.2936 60.688C31.9676 61.8166 37.8488 61.2373 43.1935 59.0235C48.5382 56.8096 53.1065 53.0606 56.3205 48.2504C59.5345 43.4403 61.25 37.7851 61.25 32C61.2421 24.2449 58.1578 16.8096 52.6741 11.3259C47.1904 5.84218 39.7552 2.75794 32 2.75V2.75ZM32 58.75C26.7094 58.75 21.5375 57.1811 17.1385 54.2418C12.7395 51.3025 9.31088 47.1247 7.28624 42.2368C5.26159 37.3489 4.73185 31.9703 5.76401 26.7813C6.79616 21.5923 9.34385 16.8259 13.0849 13.0849C16.826 9.34384 21.5924 6.79615 26.7813 5.76399C31.9703 4.73184 37.3489 5.26158 42.2368 7.28622C47.1247 9.31087 51.3025 12.7395 54.2418 17.1385C57.1812 21.5375 58.75 26.7093 58.75 32C58.7421 39.0921 55.9212 45.8915 50.9063 50.9063C45.8915 55.9212 39.0921 58.7421 32 58.75V58.75Z" fill="black"/>
<path d="M49.8001 17.8601C48.9441 17.1255 47.8318 16.7603 46.707 16.8447C45.5823 16.9291 44.5368 17.4561 43.8001 18.3101L29.3001 35.1301C29.1401 35.3153 28.9432 35.4652 28.722 35.57C28.5008 35.6748 28.2602 35.7324 28.0155 35.739C27.7708 35.7456 27.5275 35.7011 27.301 35.6083C27.0745 35.5155 26.8698 35.3765 26.7001 35.2001L20.0501 28.2001C19.6711 27.7735 19.2101 27.4276 18.6946 27.183C18.1791 26.9385 17.6196 26.8002 17.0495 26.7765C16.4794 26.7527 15.9103 26.8441 15.3763 27.045C14.8422 27.2459 14.3541 27.5523 13.941 27.9459C13.5279 28.3395 13.1983 28.8123 12.9719 29.336C12.7454 29.8598 12.6267 30.4237 12.6229 30.9943C12.6191 31.5649 12.7302 32.1304 12.9496 32.6571C13.169 33.1838 13.4923 33.661 13.9001 34.0601L25.1201 45.8501C25.5179 46.2664 25.9959 46.598 26.5252 46.8249C27.0545 47.0517 27.6242 47.1691 28.2001 47.1701H28.3001C28.8931 47.1547 29.4764 47.015 30.0121 46.7601C30.5478 46.5052 31.0241 46.1406 31.4101 45.6901L50.2401 23.8601C50.9759 23.0054 51.3427 21.8939 51.2602 20.7692C51.1778 19.6444 50.6527 18.5983 49.8001 17.8601V17.8601Z" fill="black"/>
</svg>
